<?xml version="1.0" encoding="UTF-8" ?>
<!DOCTYPE svg PUBLIC "-//W3C//DTD SVG 1.1//EN" "http://www.w3.org/Graphics/SVG/1.1/DTD/svg11.dtd">
<svg width="690pt" height="690pt" viewBox="0 0 690 690" version="1.1" xmlns="http://www.w3.org/2000/svg">
<g id="#000000ff">
<path fill="#000000" opacity="1.00" d=" M 342.33 0.00 L 352.42 0.00 C 409.72 1.33 466.69 16.87 516.37 45.52 C 572.83 77.82 619.82 126.40 650.16 183.94 C 674.97 230.54 688.36 282.94 690.00 335.67 L 690.00 351.56 C 689.14 389.82 682.21 427.98 668.95 463.90 C 646.39 525.65 605.59 580.51 553.16 620.14 C 498.36 661.85 430.77 686.46 361.96 689.56 C 359.42 689.64 356.89 689.84 354.36 690.00 L 335.82 690.00 C 298.72 688.74 261.74 682.05 226.87 669.23 C 168.38 648.00 115.99 610.46 76.87 562.09 C 51.75 531.15 32.06 495.81 19.00 458.15 C 7.05 423.91 0.82 387.77 0.00 351.54 L 0.00 335.77 C 0.93 311.81 3.78 287.89 9.45 264.57 C 21.51 213.78 45.47 165.91 78.70 125.67 C 116.30 79.99 165.79 44.17 221.03 22.96 C 259.64 8.04 300.96 0.35 342.33 0.00 M 180.97 93.54 C 180.21 267.40 179.94 441.26 181.00 615.11 C 225.58 615.95 270.16 615.92 314.74 615.43 C 315.48 559.55 313.59 503.65 315.78 447.79 C 352.13 445.51 388.61 448.79 424.95 445.98 C 441.47 444.55 457.99 442.19 474.01 437.82 C 510.87 427.50 544.39 406.19 570.13 377.97 C 594.32 350.03 607.85 313.75 610.60 277.10 C 611.59 266.41 610.79 255.69 610.99 244.99 C 610.45 206.83 593.91 169.08 565.88 143.12 C 557.47 135.23 547.84 128.81 538.04 122.81 C 516.33 109.93 491.77 102.55 466.96 98.56 C 428.97 92.38 390.34 93.11 351.98 93.12 C 294.97 93.17 237.97 92.74 180.97 93.54 Z" />
<path fill="#000000" opacity="1.00" d=" M 318.11 192.14 C 346.45 193.19 375.02 189.90 403.19 194.32 C 419.06 196.93 435.34 201.52 447.81 212.17 C 460.26 222.54 468.94 237.64 470.61 253.84 C 472.77 273.48 469.75 294.23 459.29 311.24 C 449.51 327.39 432.22 337.96 414.05 342.00 C 381.78 348.83 348.58 347.19 315.87 345.79 C 313.93 316.21 315.10 286.56 314.82 256.95 C 314.91 235.34 313.25 213.40 318.11 192.14 Z" />
</g>
<g id="#ffffffff">
<path fill="#ffffff" opacity="1.00" d=" M 180.97 93.54 C 237.97 92.74 294.97 93.17 351.98 93.12 C 390.34 93.11 428.97 92.38 466.96 98.56 C 491.77 102.55 516.33 109.93 538.04 122.81 C 547.84 128.81 557.47 135.23 565.88 143.12 C 593.91 169.08 610.45 206.83 610.99 244.99 C 610.79 255.69 611.59 266.41 610.60 277.10 C 607.85 313.75 594.32 350.03 570.13 377.97 C 544.39 406.19 510.87 427.50 474.01 437.82 C 457.99 442.19 441.47 444.55 424.95 445.98 C 388.61 448.79 352.13 445.51 315.78 447.79 C 313.59 503.65 315.48 559.55 314.74 615.43 C 270.16 615.92 225.58 615.95 181.00 615.11 C 179.94 441.26 180.21 267.40 180.97 93.54 M 318.11 192.14 C 313.25 213.40 314.91 235.34 314.82 256.95 C 315.10 286.56 313.93 316.21 315.87 345.79 C 348.58 347.19 381.78 348.83 414.05 342.00 C 432.22 337.96 449.51 327.39 459.29 311.24 C 469.75 294.23 472.77 273.48 470.61 253.84 C 468.94 237.64 460.26 222.54 447.81 212.17 C 435.34 201.52 419.06 196.93 403.19 194.32 C 375.02 189.90 346.45 193.19 318.11 192.14 Z" />
</g>
</svg>
